<?xml version="1.0" encoding="utf-8"?>
<!-- Generator: Adobe Illustrator 27.0.1, SVG Export Plug-In . SVG Version: 6.00 Build 0)  -->
<svg version="1.1" id="Layer_1" xmlns="http://www.w3.org/2000/svg" xmlns:xlink="http://www.w3.org/1999/xlink" x="0px" y="0px"
	 viewBox="0 0 698 631.5" style="enable-background:new 0 0 698 631.5;" xml:space="preserve">
<style type="text/css">
	.st0{fill:#FFFFFF;}
	.st1{fill:#F9D126;}
	.st2{fill:#2F2E41;}
	.st3{fill:#CCCCCC;}
	.st4{fill:#F2F2F2;}
	.st5{fill:#E6E6E6;}
	.st6{fill:#3F3D56;}
</style>
<path class="st0" d="M305.9,517.8H28.1c-7.3,0-13.2-5.9-13.2-13.2V127.4c0-7.3,5.9-13.2,13.2-13.2h277.9c7.3,0,13.2,5.9,13.2,13.2
	v377.2C319.1,511.9,313.2,517.8,305.9,517.8z"/>
<path class="st0" d="M154.5,212.4c0,22.3-14.4,42.2-35.6,49.1c-0.3,0.1-0.6,0.2-0.9,0.3c-1.3,0.4-2.7,0.8-4.1,1.1
	c-2.5,0.5-5,0.9-7.6,1.1c-1.1,0.1-2.2,0.1-3.4,0.1c-5.8,0-11.6-1-17.1-2.9c-0.2-0.1-0.3-0.1-0.5-0.2c-26.8-9.7-40.7-39.3-31-66.1
	c9.7-26.8,39.3-40.7,66.1-31C140.8,171.3,154.5,190.7,154.5,212.4L154.5,212.4z"/>
<circle class="st1" cx="101.6" cy="221.5" r="25.1"/>
<path class="st2" d="M103.1,235l0-0.9c-1.7,0-3.3-0.2-4.4-1c-0.7-0.5-1.1-1.3-1.1-2.1c0-0.5,0.2-1,0.5-1.4c0.9-0.5,2-0.5,2.9,0
	l0.8,0.4l-1.5-10.9l-0.9,0.1l1.3,9.3c-1.1-0.4-2.2-0.2-3.1,0.5c-0.6,0.5-0.9,1.3-0.9,2.1c0.1,1.1,0.6,2.2,1.5,2.8
	C99.6,234.9,101.5,235,103.1,235z"/>
<rect x="89.7" y="220" class="st2" width="5.1" height="0.9"/>
<rect x="105.7" y="220" class="st2" width="5.1" height="0.9"/>
<path class="st2" d="M108.8,256.6c0.1-0.3,0.1-0.6,0.1-0.9c0-2.5-2-4.5-4.5-4.5h-6.6c-2.5,0-4.5,2-4.5,4.5c0,0.3,0,0.6,0.1,0.9
	c-2.5,0.8-4.8,1.9-6.9,3.4c-0.4,0.3-0.8,0.6-1.2,0.9c0.2,0.1,0.3,0.1,0.5,0.2c5.5,1.9,11.3,2.9,17.1,2.9c1.1,0,2.2,0,3.4-0.1
	c2.6-0.2,5.1-0.5,7.6-1.1c1.4-0.3,2.7-0.7,4.1-1.1C115.3,259.4,112.1,257.7,108.8,256.6z"/>
<path class="st2" d="M107.9,263.3c-0.6,0-1.2,0.3-1.7,0.6c2.6-0.2,5.1-0.5,7.6-1.1L107.9,263.3z"/>
<path class="st2" d="M124.4,215.5l-43.6-16c-1-0.4-1.5-1.4-1.1-2.4l0.1-0.7c3.4-9.3,14.7-15.2,24-11.8l13.4,4.9
	c9.3,3.4,13.4,14.4,10,23.7l-0.4,1.1C126.5,215.4,125.4,215.9,124.4,215.5z"/>
<path class="st2" d="M126.8,216.4C66,218.7,60.6,211,79.2,199l3.9-7.2l45,16.4L126.8,216.4z"/>
<ellipse transform="matrix(0.2879 -0.9577 0.9577 0.2879 -100.3367 239.7113)" class="st2" cx="111" cy="187.3" rx="2.1" ry="4"/>
<path class="st3" d="M102.9,265.4c-6,0-11.9-1-17.5-3l-0.5-0.2c-27.5-10-41.8-40.3-31.8-67.9c10-27.5,40.3-41.8,67.9-31.8
	c27.5,10,41.8,40.3,31.8,67.9c-5.6,15.4-17.9,27.3-33.4,32.4c-0.3,0.1-0.6,0.2-1,0.3c-1.3,0.4-2.7,0.8-4.2,1.1
	c-2.6,0.6-5.2,0.9-7.8,1.1C105.2,265.4,104,265.4,102.9,265.4z M102.9,162.2c-27.7,0-50.2,22.5-50.2,50.2c0,21.1,13.3,40,33.1,47.2
	l0.5,0.2c5.3,1.9,10.9,2.8,16.6,2.8c1.1,0,2.2,0,3.3-0.1c2.5-0.2,5-0.5,7.4-1c1.4-0.3,2.7-0.6,4-1c0.3-0.1,0.6-0.2,0.9-0.3
	c26.4-8.6,40.8-36.9,32.2-63.3C143.9,176.2,124.6,162.2,102.9,162.2z"/>
<path class="st4" d="M32.6,371.1"/>
<path class="st3" d="M305.9,517.8H28.1c-7.3,0-13.2-5.9-13.2-13.2V127.4c0-7.3,5.9-13.2,13.2-13.2h277.9c7.3,0,13.2,5.9,13.2,13.2
	v377.2C319.1,511.9,313.2,517.8,305.9,517.8z M28.1,115.8c-6.4,0-11.6,5.2-11.6,11.6v377.2c0,6.4,5.2,11.6,11.6,11.6h277.9
	c6.4,0,11.6-5.2,11.6-11.6V127.4c0-6.4-5.2-11.6-11.6-11.6H28.1z"/>
<path class="st5" d="M252.1,212.2h-78.6c-3.4,0-6.2-2.8-6.2-6.2c0-3.4,2.8-6.2,6.2-6.2h78.6c3.4,0,6.2,2.8,6.2,6.2
	C258.4,209.4,255.6,212.2,252.1,212.2z"/>
<path class="st5" d="M277.8,233.2H173.5c-3.4,0-6.2-2.8-6.2-6.2c0-3.4,2.8-6.2,6.2-6.2h104.3c3.4,0,6.2,2.8,6.2,6.2
	C284,230.4,281.2,233.2,277.8,233.2z"/>
<path class="st5" d="M252,313.7H56.2c-3.4,0-6.2-2.8-6.2-6.2c0-3.4,2.8-6.2,6.2-6.2H252c3.4,0,6.2,2.8,6.2,6.2
	C258.2,310.9,255.5,313.7,252,313.7L252,313.7z"/>
<path class="st5" d="M277.7,334.7H56.2c-3.4,0-6.2-2.8-6.2-6.2c0-3.4,2.8-6.2,6.2-6.2h221.5c3.4,0,6.2,2.8,6.2,6.2
	C283.9,331.9,281.1,334.7,277.7,334.7z"/>
<path class="st5" d="M252,383H56.2c-3.4,0-6.2-2.8-6.2-6.2c0-3.4,2.8-6.2,6.2-6.2c0,0,0,0,0,0H252c3.4,0,6.2,2.8,6.2,6.2
	C258.2,380.2,255.5,383,252,383z"/>
<path class="st5" d="M277.7,404H56.2c-3.4,0-6.2-2.8-6.2-6.2c0-3.4,2.8-6.2,6.2-6.2c0,0,0,0,0,0h221.5c3.4,0,6.2,2.8,6.2,6.2
	C283.9,401.2,281.1,403.9,277.7,404C277.7,404,277.7,404,277.7,404z"/>
<path class="st5" d="M252,452.2H56.2c-3.4,0-6.2-2.8-6.2-6.2c0-3.4,2.8-6.2,6.2-6.2c0,0,0,0,0,0H252c3.4,0,6.2,2.8,6.2,6.2
	C258.2,449.4,255.5,452.2,252,452.2z"/>
<path class="st5" d="M277.7,473.2H56.2c-3.4,0-6.2-2.8-6.2-6.2c0-3.4,2.8-6.2,6.2-6.2c0,0,0,0,0,0h221.5c3.4,0,6.2,2.8,6.2,6.2
	C283.9,470.4,281.1,473.2,277.7,473.2C277.7,473.2,277.7,473.2,277.7,473.2z"/>
<path class="st0" d="M667.6,423.1l-277.8,0c-7.3,0-13.2-5.9-13.2-13.2l0-377.2c0-7.3,5.9-13.2,13.2-13.2l277.9,0
	c7.3,0,13.2,5.9,13.2,13.2l0,377.2C680.8,417.2,674.9,423.1,667.6,423.1z"/>
<path class="st3" d="M667.6,423.1l-277.8,0c-7.3,0-13.2-5.9-13.2-13.2l0-377.2c0-7.3,5.9-13.2,13.2-13.2l277.9,0
	c7.3,0,13.2,5.9,13.2,13.2l0,377.2C680.8,417.2,674.9,423.1,667.6,423.1z M389.7,21.1c-6.4,0-11.6,5.2-11.6,11.6l0,377.2
	c0,6.4,5.2,11.6,11.6,11.6l277.9,0c6.4,0,11.6-5.2,11.6-11.6l0-377.2c0-6.4-5.2-11.6-11.6-11.6L389.7,21.1z"/>
<path class="st0" d="M516.3,117.2c0,28.5-23.1,51.6-51.6,51.6c-28.5,0-51.6-23.1-51.6-51.6c0-28.5,23.1-51.6,51.6-51.6
	C493.2,65.6,516.3,88.7,516.3,117.2z"/>
<path class="st1" d="M488.5,126c-0.6,33-49.7,33-50.2,0C438.9,93,488,93,488.5,126z"/>
<path class="st2" d="M462.4,136.3l0-0.9c6.5,0.9,7.9-7.2,1.3-4.2l1.5-10.9l0.9,0.1l-1.3,9.3C471.7,128.7,469.2,137.2,462.4,136.3z"
	/>
<rect x="470.7" y="121.2" class="st2" width="5.1" height="0.9"/>
<rect x="454.8" y="121.2" class="st2" width="5.1" height="0.9"/>
<path class="st2" d="M471.6,161.1c1-6.6-6.8-5.3-10.9-5.4c-2.5,0-4.5,2-4.5,4.5c0,0.3,0,0.6,0.1,0.9c-3.2,1-6.1,2.6-8.7,4.8
	c10.7,3.7,22.3,3.9,33,0.4C478,163.9,474.9,162.2,471.6,161.1z"/>
<path class="st2" d="M451.6,114.2c4.7-2.7,10.3-0.6,15.1,0.5c9.1,2.8,21.9-0.7,23-11.6c1.2-10.1-12.7-15.7-17.1-5.7l1.3-0.2
	c-14.3-21.3-39.2-20.5-39.1,8.8c-0.1,0.9,1.4,0.9,1.4,0c-0.5-17.2,10.9-29,27-18c3.6,2.8,6.8,6.1,9.4,9.9c1.7,1.9,2-6.2,10.1-4.1
	c8.9,3.4,6,16.1-1.9,18.9c-9.8,5-20.4-4.7-30,0.2c-0.3,0.2-0.4,0.6-0.2,1C450.9,114.2,451.3,114.3,451.6,114.2L451.6,114.2z"/>
<path class="st3" d="M464.7,170.2c-29.3,0-52.9-23.8-52.9-53s23.8-52.9,53-52.9c29.3,0,52.9,23.8,52.9,53
	c0,22.9-14.8,43.2-36.6,50.3C475.8,169.4,470.2,170.2,464.7,170.2z M464.7,67c-27.7,0-50.2,22.5-50.2,50.2
	c0,27.7,22.5,50.2,50.2,50.2c27.7,0,50.2-22.5,50.2-50.2c0,0,0,0,0,0C514.8,89.5,492.4,67,464.7,67z"/>
<path class="st5" d="M613.8,117.5l-78.6,0c-3.4,0-6.2-2.8-6.2-6.2c0-3.4,2.8-6.2,6.2-6.2l78.6,0c3.4,0,6.2,2.8,6.2,6.2
	C620,114.7,617.3,117.5,613.8,117.5C613.8,117.5,613.8,117.5,613.8,117.5z"/>
<path class="st5" d="M639.5,138.5l-104.3,0c-3.4,0-6.2-2.8-6.2-6.2c0-3.4,2.8-6.2,6.2-6.2c0,0,0,0,0,0l104.3,0
	c3.4,0,6.2,2.8,6.2,6.2C645.7,135.7,642.9,138.5,639.5,138.5z"/>
<path class="st5" d="M613.7,219l-195.8,0c-3.4,0-6.2-2.8-6.2-6.2c0-3.4,2.8-6.2,6.2-6.2l195.8,0c3.4,0,6.2,2.8,6.2,6.2
	C619.9,216.2,617.1,219,613.7,219C613.7,219,613.7,219,613.7,219z"/>
<path class="st5" d="M639.3,240l-221.5,0c-3.4,0-6.2-2.8-6.2-6.2c0-3.4,2.8-6.2,6.2-6.2l221.5,0c3.4,0,6.2,2.8,6.2,6.2
	C645.6,237.2,642.8,240,639.3,240L639.3,240z"/>
<path class="st5" d="M613.7,288.3l-195.8,0c-3.4,0-6.2-2.8-6.2-6.2c0-3.4,2.8-6.2,6.2-6.2l195.8,0c3.4,0,6.2,2.8,6.2,6.2
	C619.9,285.5,617.1,288.3,613.7,288.3z"/>
<path class="st5" d="M639.3,309.3l-221.5,0c-3.4,0-6.2-2.8-6.2-6.2c0-3.4,2.8-6.2,6.2-6.2l221.5,0c3.4,0,6.2,2.8,6.2,6.2
	S642.8,309.3,639.3,309.3z"/>
<path class="st5" d="M613.7,357.5l-195.8,0c-3.4,0-6.2-2.8-6.2-6.2s2.8-6.2,6.2-6.2c0,0,0,0,0,0l195.8,0c3.4,0,6.2,2.8,6.2,6.2
	C619.9,354.7,617.1,357.5,613.7,357.5C613.7,357.5,613.7,357.5,613.7,357.5z"/>
<path class="st5" d="M639.3,378.5l-221.5,0c-3.4,0-6.2-2.8-6.2-6.2s2.8-6.2,6.2-6.2c0,0,0,0,0,0l221.5,0c3.4,0,6.2,2.8,6.2,6.2
	C645.6,375.7,642.8,378.5,639.3,378.5z"/>
<path class="st0" d="M500,585.4H222.1c-7.3,0-13.2-5.9-13.2-13.2V195c0-7.3,5.9-13.2,13.2-13.2H500c7.3,0,13.2,5.9,13.2,13.2v377.2
	C513.1,579.4,507.2,585.3,500,585.4z"/>
<path class="st0" d="M245.3,278.9c0,13.7,5.4,26.9,15.2,36.6c0.4,0.4,0.8,0.8,1.2,1.2c2.5,2.3,5.3,4.4,8.2,6.2
	c0.6,0.3,1.1,0.7,1.7,1c3,1.7,6.1,3,9.3,4.1c0.6,0.2,1.1,0.4,1.7,0.5c10.3,3,21.2,2.6,31.3-0.9c0.2-0.1,0.4-0.1,0.6-0.2
	c26.8-9.7,40.6-39.4,30.9-66.1s-39.4-40.6-66.1-30.9C258.9,237.8,245.3,257.2,245.3,278.9L245.3,278.9z"/>
<path class="st2" d="M286,304.2c0,4-1.4,7.9-4.1,10.8c-2.7,2.9-6.6,4.8-10.6,4c-3.7-0.7-6.7-3.9-6.3-7.8c0.2-3.2,3-5.6,6.2-5.4
	c0.3,0,0.6,0.1,1,0.2c3.5,0.9,4.9,5.9,2,8.3c-0.7,0.6-1.7-0.4-1-1c1.4-1.3,1.5-3.5,0.2-5c-0.3-0.4-0.8-0.7-1.2-0.9
	c-2.3-0.7-4.8,0.5-5.6,2.9c-0.1,0.3-0.2,0.7-0.2,1c-0.2,3.3,2.3,5.7,5.4,6.3c3.3,0.6,6.6-1.1,8.9-3.4c2.6-2.7,4-6.4,4-10.1
	c0-0.4,0.3-0.7,0.7-0.7C285.7,303.5,286,303.8,286,304.2z"/>
<circle class="st1" cx="299.7" cy="288" r="25.1"/>
<path class="st2" d="M298.4,298.7l0-0.9c1.7,0,3.3-0.2,4.4-1c0.7-0.5,1.1-1.3,1.1-2.1c0-0.5-0.2-1-0.5-1.4c-0.9-0.5-2-0.5-2.9,0
	l-0.8,0.4l1.5-10.9l0.9,0.1l-1.3,9.3c1.1-0.4,2.2-0.2,3.1,0.5c0.6,0.5,0.9,1.3,0.9,2.1c-0.1,1.1-0.6,2.2-1.5,2.8
	C301.9,298.6,300,298.7,298.4,298.7z"/>
<rect x="306.8" y="283.7" class="st2" width="5.1" height="0.9"/>
<rect x="290.8" y="283.7" class="st2" width="5.1" height="0.9"/>
<path class="st2" d="M282.6,328.5c10.3,3,21.2,2.6,31.3-0.9c0.2-0.1,0.4-0.1,0.6-0.2c-2.4-1.8-5.1-3.2-8-4.1c0.2-0.7,0.2-1.5,0-2.2
	c-0.6-1.9-2.3-3.1-4.3-3.1h-6.1c-2,0-3.7,1.2-4.3,3.1c-0.2,0.7-0.2,1.5,0,2.2c-2.5,0.8-4.9,1.9-7.1,3.5c-0.4,0.3-0.9,0.6-1.3,1
	C283.2,328,282.9,328.2,282.6,328.5z"/>
<path class="st6" d="M319.4,285.3c0,4.2,2.1,7.7,4.8,8.4c0.3,0.1,0.6,0.1,0.8,0.1c3.1,0,5.6-3.8,5.6-8.4c0.1-2.4-0.7-4.8-2.2-6.7
	c-0.5-0.6-1-1-1.7-1.3c-0.6-0.3-1.2-0.4-1.8-0.4c-0.9,0-1.7,0.3-2.4,0.8C320.7,279.1,319.4,282,319.4,285.3z"/>
<path class="st6" d="M269.2,285.3c0,3.6,1.5,6.7,3.7,7.9c0.6,0.3,1.3,0.5,1.9,0.5c0.2,0,0.3,0,0.5,0c2.9-0.3,5.2-4,5.2-8.4
	c0-3.6-1.5-6.6-3.5-7.8c-0.6-0.4-1.3-0.6-2.1-0.6c-0.6,0-1.2,0.2-1.8,0.4c-0.6,0.3-1.2,0.8-1.7,1.4
	C269.9,280.6,269.1,282.9,269.2,285.3z"/>
<path class="st6" d="M273.2,292.5c0.4,0,0.7-0.3,0.7-0.7c0-0.1,0-0.2,0-0.2c-4.8-14.4,2.9-29.9,17.3-34.8
	c14.4-4.8,29.9,2.9,34.8,17.3c1.6,4.6,1.9,9.6,0.8,14.4c-0.1,0.4,0.2,0.8,0.5,0.8c0.4,0.1,0.8-0.2,0.8-0.5
	c3.3-15.6-6.7-30.9-22.3-34.2c-15.6-3.3-30.9,6.7-34.2,22.3c-1.1,5-0.8,10.3,0.9,15.2C272.7,292.3,272.9,292.5,273.2,292.5z"/>
<path class="st2" d="M312.3,271.7c0.9,1.4,0.6,3.2-0.5,4.4c-1.4,1.5-3.5,1.6-5.4,1.3c-2.1-0.3-4.4-1.3-6.5-0.6
	c-1.8,0.6-3.1,2.2-5,2.6c-1.7,0.4-3.7-0.1-4.3-1.9c-0.3-0.9,1.1-1.2,1.4-0.4c0.4,1.2,2,1.1,3,0.8c1.5-0.5,2.7-1.8,4.2-2.4
	c1.8-0.5,3.7-0.5,5.4,0c1.7,0.4,3.6,0.9,5.3,0.2c1.2-0.5,2.2-2.2,1.3-3.4C310.6,271.7,311.8,271,312.3,271.7L312.3,271.7z"/>
<path class="st3" d="M296.9,331.9c-5,0-9.9-0.7-14.7-2.1c-0.6-0.2-1.1-0.3-1.7-0.5c-3.3-1.1-6.5-2.5-9.6-4.2c-0.6-0.3-1.1-0.7-1.8-1
	c-3-1.9-5.8-4-8.4-6.4c-0.4-0.4-0.8-0.8-1.3-1.2c-20.7-20.7-20.8-54.2-0.1-75s54.2-20.8,75-0.1c20.7,20.7,20.8,54.2,0.1,75
	c-5.5,5.5-12.1,9.7-19.4,12.4c-0.2,0.1-0.4,0.1-0.6,0.2C308.8,330.9,302.9,331.9,296.9,331.9z M296.9,228.7
	c-27.7,0-50.2,22.5-50.2,50.2c0,13.3,5.3,26.1,14.8,35.5c0.4,0.4,0.8,0.8,1.2,1.2c2.4,2.3,5.1,4.3,8,6.1c0.6,0.4,1.1,0.7,1.7,1
	c2.9,1.6,5.9,3,9.1,4c0.6,0.2,1.1,0.4,1.6,0.5c10,2.9,20.7,2.6,30.5-0.9l0.6-0.2c26.1-9.5,39.5-38.3,30-64.3
	C336.8,241.9,318,228.7,296.9,228.7L296.9,228.7z"/>
<path class="st6" d="M500,585.4H222.1c-7.3,0-13.2-5.9-13.2-13.2V195c0-7.3,5.9-13.2,13.2-13.2H500c7.3,0,13.2,5.9,13.2,13.2v377.2
	C513.1,579.4,507.2,585.3,500,585.4z M222.1,183.3c-6.4,0-11.6,5.2-11.6,11.6v377.2c0,6.4,5.2,11.6,11.6,11.6H500
	c6.4,0,11.6-5.2,11.6-11.6V195c0-6.4-5.2-11.6-11.6-11.6H222.1z"/>
<path class="st1" d="M446.2,279.7h-78.6c-3.4,0-6.2-2.8-6.2-6.2c0-3.4,2.8-6.2,6.2-6.2c0,0,0,0,0,0h78.6c3.4,0,6.2,2.8,6.2,6.2
	C452.4,276.9,449.6,279.7,446.2,279.7C446.2,279.7,446.2,279.7,446.2,279.7z"/>
<path class="st1" d="M471.8,300.7H367.5c-3.4,0-6.2-2.8-6.2-6.2c0-3.4,2.8-6.2,6.2-6.2c0,0,0,0,0,0h104.3c3.4,0,6.2,2.8,6.2,6.2
	C478,297.9,475.3,300.7,471.8,300.7z"/>
<path class="st3" d="M446.1,381.2H250.2c-3.4,0-6.2-2.8-6.2-6.2c0-3.4,2.8-6.2,6.2-6.2h195.8c3.4,0,6.2,2.8,6.2,6.2
	C452.3,378.5,449.5,381.2,446.1,381.2z"/>
<path class="st3" d="M471.7,402.2H250.2c-3.4,0-6.2-2.8-6.2-6.2c0-3.4,2.8-6.2,6.2-6.2h221.5c3.4,0,6.2,2.8,6.2,6.2
	C477.9,399.4,475.1,402.2,471.7,402.2z"/>
<path class="st3" d="M446.1,450.5H250.2c-3.4,0-6.2-2.8-6.2-6.2c0-3.4,2.8-6.2,6.2-6.2h195.8c3.4,0,6.2,2.8,6.2,6.2
	C452.3,447.7,449.5,450.5,446.1,450.5z"/>
<path class="st3" d="M471.7,471.5H250.2c-3.4,0-6.2-2.8-6.2-6.2c0-3.4,2.8-6.2,6.2-6.2h221.5c3.4,0,6.2,2.8,6.2,6.2
	C477.9,468.7,475.1,471.5,471.7,471.5z"/>
<path class="st3" d="M446.1,519.7H250.2c-3.4,0-6.2-2.8-6.2-6.2c0-3.4,2.8-6.2,6.2-6.2h195.8c3.4,0,6.2,2.8,6.2,6.2
	C452.3,516.9,449.5,519.7,446.1,519.7z"/>
<path class="st3" d="M471.7,540.7H250.2c-3.4,0-6.2-2.8-6.2-6.2c0-3.4,2.8-6.2,6.2-6.2h221.5c3.4,0,6.2,2.8,6.2,6.2
	C477.9,537.9,475.2,540.7,471.7,540.7C471.7,540.7,471.7,540.7,471.7,540.7z"/>
<path class="st1" d="M496.7,499.5c-33.8,0-61.3,27.4-61.3,61.3c0,33.8,27.4,61.3,61.3,61.3h0c33.8-0.1,61.2-27.5,61.2-61.4
	C557.9,526.9,530.5,499.5,496.7,499.5z"/>
<path id="ba2462e0-2d61-4715-874d-575d790dfdd0-1044" class="st0" d="M490.9,586.2c-1.6,0-3.2-0.5-4.5-1.5l-0.1-0.1l-16.9-12.9
	c-3.3-2.5-3.9-7.2-1.4-10.5c2.5-3.3,7.2-3.9,10.5-1.4l10.9,8.4l25.8-33.7c2.5-3.3,7.2-3.9,10.5-1.4l0,0l0,0l0,0l-0.2,0.2l0.2-0.2
	c3.3,2.5,3.9,7.2,1.4,10.5l-30.3,39.6C495.5,585.1,493.3,586.2,490.9,586.2L490.9,586.2z"/>
</svg>
